{"glyphs":{"0":{"ha":1213,"x_min":0,"x_max":1042,"o":"m 868 174 l 868 694 l 174 694 l 174 174 l 868 174 m 0 0 l 0 868 l 1042 868 l 1042 0 l 0 0 z "},"1":{"ha":1213,"x_min":0,"x_max":1042,"o":"m 0 0 l 0 174 l 434 174 l 434 694 l 0 694 l 0 868 l 608 868 l 608 174 l 1042 174 l 1042 0 l 0 0 z "},"2":{"ha":1213,"x_min":0,"x_max":1042,"o":"m 0 0 l 0 521 l 868 521 l 868 694 l 0 694 l 0 868 l 1042 868 l 1042 347 l 174 347 l 174 174 l 1042 174 l 1042 0 l 0 0 z "},"3":{"ha":1213,"x_min":0,"x_max":1042,"o":"m 0 0 l 0 174 l 868 174 l 868 347 l 347 347 l 347 521 l 868 521 l 868 694 l 0 694 l 0 868 l 1042 868 l 1042 0 l 0 0 z "},"4":{"ha":1213,"x_min":0,"x_max":1042,"o":"m 868 0 l 868 347 l 0 347 l 0 868 l 174 868 l 174 521 l 868 521 l 868 868 l 1042 868 l 1042 0 l 868 0 z "},"5":{"ha":1213,"x_min":0,"x_max":1042,"o":"m 0 0 l 0 174 l 868 174 l 868 347 l 0 347 l 0 868 l 1042 868 l 1042 694 l 174 694 l 174 521 l 1042 521 l 1042 0 l 0 0 z "},"6":{"ha":1213,"x_min":0,"x_max":1042,"o":"m 868 174 l 868 347 l 174 347 l 174 174 l 868 174 m 0 0 l 0 868 l 1042 868 l 1042 694 l 174 694 l 174 521 l 1042 521 l 1042 0 l 0 0 z "},"7":{"ha":1213,"x_min":0,"x_max":1042,"o":"m 868 0 l 868 694 l 0 694 l 0 868 l 1042 868 l 1042 0 l 868 0 z "},"8":{"ha":1213,"x_min":0,"x_max":1042,"o":"m 868 174 l 868 347 l 174 347 l 174 174 l 868 174 m 868 521 l 868 694 l 174 694 l 174 521 l 868 521 m 0 0 l 0 868 l 1042 868 l 1042 0 l 0 0 z "},"9":{"ha":1213,"x_min":0,"x_max":1042,"o":"m 868 521 l 868 694 l 174 694 l 174 521 l 868 521 m 868 0 l 868 347 l 0 347 l 0 868 l 1042 868 l 1042 0 l 868 0 z "}," ":{"ha":521,"x_min":0,"x_max":0,"o":""},"!":{"ha":345,"x_min":0,"x_max":174,"o":"m 0 0 l 0 174 l 174 174 l 174 0 l 0 0 m 0 347 l 0 868 l 174 868 l 174 347 l 0 347 z "},",":{"ha":518,"x_min":0,"x_max":347,"o":"m 174 -174 l 174 0 l 0 0 l 0 347 l 347 347 l 347 -174 l 174 -174 z "},".":{"ha":518,"x_min":0,"x_max":347,"o":"m 0 0 l 0 347 l 347 347 l 347 0 l 0 0 z "},"?":{"ha":1213,"x_min":0,"x_max":1042,"o":"m 521 0 l 521 174 l 694 174 l 694 0 l 521 0 m 521 347 l 521 521 l 868 521 l 868 694 l 0 694 l 0 868 l 1042 868 l 1042 347 l 521 347 z "},"A":{"ha":1213,"x_min":0,"x_max":1042,"o":"m 868 347 l 868 694 l 174 694 l 174 347 l 868 347 m 0 0 l 0 868 l 1042 868 l 1042 0 l 868 0 l 868 174 l 174 174 l 174 0 l 0 0 z "},"B":{"ha":1213,"x_min":0,"x_max":1042,"o":"m 0 0 l 0 868 l 1042 868 l 1042 521 l 868 521 l 868 694 l 174 694 l 174 521 l 868 521 l 868 347 l 174 347 l 174 174 l 868 174 l 868 347 l 1042 347 l 1042 0 l 0 0 z "},"C":{"ha":1213,"x_min":0,"x_max":1042,"o":"m 0 0 l 0 868 l 1042 868 l 1042 694 l 174 694 l 174 174 l 1042 174 l 1042 0 l 0 0 z "},"D":{"ha":1213,"x_min":0,"x_max":1042,"o":"m 868 174 l 868 694 l 1042 694 l 1042 174 l 868 174 m 0 0 l 0 868 l 868 868 l 868 694 l 174 694 l 174 174 l 868 174 l 868 0 l 0 0 z "},"E":{"ha":1213,"x_min":0,"x_max":1042,"o":"m 0 0 l 0 868 l 1042 868 l 1042 694 l 174 694 l 174 521 l 868 521 l 868 347 l 174 347 l 174 174 l 1042 174 l 1042 0 l 0 0 z "},"F":{"ha":1213,"x_min":0,"x_max":1042,"o":"m 0 0 l 0 868 l 1042 868 l 1042 694 l 174 694 l 174 521 l 868 521 l 868 347 l 174 347 l 174 0 l 0 0 z "},"G":{"ha":1213,"x_min":0,"x_max":1042,"o":"m 0 0 l 0 868 l 1042 868 l 1042 694 l 174 694 l 174 174 l 868 174 l 868 347 l 347 347 l 347 521 l 1042 521 l 1042 0 l 0 0 z "},"H":{"ha":1213,"x_min":0,"x_max":1042,"o":"m 0 0 l 0 868 l 174 868 l 174 521 l 868 521 l 868 868 l 1042 868 l 1042 0 l 868 0 l 868 347 l 174 347 l 174 0 l 0 0 z "},"I":{"ha":1213,"x_min":0,"x_max":1042,"o":"m 0 0 l 0 174 l 434 174 l 434 694 l 0 694 l 0 868 l 1042 868 l 1042 694 l 608 694 l 608 174 l 1042 174 l 1042 0 l 0 0 z "},"J":{"ha":1213,"x_min":0,"x_max":1042,"o":"m 0 0 l 0 174 l 868 174 l 868 694 l 174 694 l 174 868 l 1042 868 l 1042 0 l 0 0 z "},"K":{"ha":1213,"x_min":0,"x_max":1042,"o":"m 868 0 l 868 347 l 1042 347 l 1042 0 l 868 0 m 0 0 l 0 868 l 174 868 l 174 521 l 868 521 l 868 347 l 174 347 l 174 0 l 0 0 m 868 521 l 868 868 l 1042 868 l 1042 521 l 868 521 z "},"L":{"ha":1213,"x_min":0,"x_max":1042,"o":"m 0 0 l 0 868 l 174 868 l 174 174 l 1042 174 l 1042 0 l 0 0 z "},"M":{"ha":1213,"x_min":0,"x_max":1042,"o":"m 0 0 l 0 868 l 1042 868 l 1042 0 l 868 0 l 868 694 l 608 694 l 608 0 l 434 0 l 434 694 l 174 694 l 174 0 l 0 0 z "},"N":{"ha":1213,"x_min":0,"x_max":1042,"o":"m 0 0 l 0 868 l 1042 868 l 1042 0 l 868 0 l 868 694 l 174 694 l 174 0 l 0 0 z "},"O":{"ha":1213,"x_min":0,"x_max":1042,"o":"m 868 174 l 868 694 l 174 694 l 174 174 l 868 174 m 0 0 l 0 868 l 1042 868 l 1042 0 l 0 0 z "},"P":{"ha":1213,"x_min":0,"x_max":1042,"o":"m 868 347 l 868 694 l 174 694 l 174 347 l 868 347 m 0 0 l 0 868 l 1042 868 l 1042 174 l 174 174 l 174 0 l 0 0 z "},"Q":{"ha":1213,"x_min":0,"x_max":1042,"o":"m 868 174 l 868 694 l 174 694 l 174 174 l 434 174 l 434 347 l 608 347 l 608 174 l 868 174 m 434 -174 l 434 0 l 0 0 l 0 868 l 1042 868 l 1042 0 l 608 0 l 608 -174 l 434 -174 z "},"R":{"ha":1213,"x_min":0,"x_max":1042,"o":"m 868 521 l 868 694 l 174 694 l 174 521 l 868 521 m 0 0 l 0 868 l 1042 868 l 1042 347 l 521 347 l 521 174 l 1042 174 l 1042 0 l 347 0 l 347 347 l 174 347 l 174 0 l 0 0 z "},"S":{"ha":1213,"x_min":0,"x_max":1042,"o":"m 0 0 l 0 174 l 868 174 l 868 347 l 0 347 l 0 868 l 1042 868 l 1042 694 l 174 694 l 174 521 l 1042 521 l 1042 0 l 0 0 z "},"T":{"ha":1213,"x_min":0,"x_max":1042,"o":"m 434 0 l 434 694 l 0 694 l 0 868 l 1042 868 l 1042 694 l 608 694 l 608 0 l 434 0 z "},"U":{"ha":1213,"x_min":0,"x_max":1042,"o":"m 0 0 l 0 868 l 174 868 l 174 174 l 868 174 l 868 868 l 1042 868 l 1042 0 l 0 0 z "},"V":{"ha":1213,"x_min":0,"x_max":1042,"o":"m 174 0 l 174 174 l 868 174 l 868 0 l 174 0 m 0 174 l 0 868 l 174 868 l 174 174 l 0 174 m 868 174 l 868 868 l 1042 868 l 1042 174 l 868 174 z "},"W":{"ha":1213,"x_min":0,"x_max":1042,"o":"m 0 0 l 0 868 l 174 868 l 174 174 l 434 174 l 434 868 l 608 868 l 608 174 l 868 174 l 868 868 l 1042 868 l 1042 0 l 0 0 z "},"X":{"ha":1213,"x_min":0,"x_max":1042,"o":"m 0 0 l 0 347 l 174 347 l 174 0 l 0 0 m 868 0 l 868 347 l 1042 347 l 1042 0 l 868 0 m 174 347 l 174 521 l 868 521 l 868 347 l 174 347 m 0 521 l 0 868 l 174 868 l 174 521 l 0 521 m 868 521 l 868 868 l 1042 868 l 1042 521 l 868 521 z "},"Y":{"ha":1213,"x_min":0,"x_max":1042,"o":"m 434 0 l 434 347 l 0 347 l 0 868 l 174 868 l 174 521 l 868 521 l 868 868 l 1042 868 l 1042 347 l 608 347 l 608 0 l 434 0 z "},"Z":{"ha":1213,"x_min":0,"x_max":1042,"o":"m 0 0 l 0 521 l 868 521 l 868 694 l 0 694 l 0 868 l 1042 868 l 1042 347 l 174 347 l 174 174 l 1042 174 l 1042 0 l 0 0 z "},"a":{"ha":1213,"x_min":0,"x_max":1042,"o":"m 868 347 l 868 694 l 174 694 l 174 347 l 868 347 m 0 0 l 0 868 l 1042 868 l 1042 0 l 868 0 l 868 174 l 174 174 l 174 0 l 0 0 z "},"b":{"ha":1213,"x_min":0,"x_max":1042,"o":"m 0 0 l 0 868 l 1042 868 l 1042 521 l 868 521 l 868 694 l 174 694 l 174 521 l 868 521 l 868 347 l 174 347 l 174 174 l 868 174 l 868 347 l 1042 347 l 1042 0 l 0 0 z "},"c":{"ha":1213,"x_min":0,"x_max":1042,"o":"m 0 0 l 0 868 l 1042 868 l 1042 694 l 174 694 l 174 174 l 1042 174 l 1042 0 l 0 0 z "},"d":{"ha":1213,"x_min":0,"x_max":1042,"o":"m 868 174 l 868 694 l 1042 694 l 1042 174 l 868 174 m 0 0 l 0 868 l 868 868 l 868 694 l 174 694 l 174 174 l 868 174 l 868 0 l 0 0 z "},"e":{"ha":1213,"x_min":0,"x_max":1042,"o":"m 0 0 l 0 868 l 1042 868 l 1042 694 l 174 694 l 174 521 l 868 521 l 868 347 l 174 347 l 174 174 l 1042 174 l 1042 0 l 0 0 z "},"f":{"ha":1213,"x_min":0,"x_max":1042,"o":"m 0 0 l 0 868 l 1042 868 l 1042 694 l 174 694 l 174 521 l 868 521 l 868 347 l 174 347 l 174 0 l 0 0 z "},"g":{"ha":1213,"x_min":0,"x_max":1042,"o":"m 0 0 l 0 868 l 1042 868 l 1042 694 l 174 694 l 174 174 l 868 174 l 868 347 l 347 347 l 347 521 l 1042 521 l 1042 0 l 0 0 z "},"h":{"ha":1213,"x_min":0,"x_max":1042,"o":"m 0 0 l 0 868 l 174 868 l 174 521 l 868 521 l 868 868 l 1042 868 l 1042 0 l 868 0 l 868 347 l 174 347 l 174 0 l 0 0 z "},"i":{"ha":1213,"x_min":0,"x_max":1042,"o":"m 0 0 l 0 174 l 434 174 l 434 694 l 0 694 l 0 868 l 1042 868 l 1042 694 l 608 694 l 608 174 l 1042 174 l 1042 0 l 0 0 z "},"j":{"ha":1213,"x_min":0,"x_max":1042,"o":"m 0 0 l 0 174 l 868 174 l 868 694 l 174 694 l 174 868 l 1042 868 l 1042 0 l 0 0 z "},"k":{"ha":1213,"x_min":0,"x_max":1042,"o":"m 868 0 l 868 347 l 1042 347 l 1042 0 l 868 0 m 0 0 l 0 868 l 174 868 l 174 521 l 868 521 l 868 347 l 174 347 l 174 0 l 0 0 m 868 521 l 868 868 l 1042 868 l 1042 521 l 868 521 z "},"l":{"ha":1213,"x_min":0,"x_max":1042,"o":"m 0 0 l 0 868 l 174 868 l 174 174 l 1042 174 l 1042 0 l 0 0 z "},"m":{"ha":1213,"x_min":0,"x_max":1042,"o":"m 0 0 l 0 868 l 1042 868 l 1042 0 l 868 0 l 868 694 l 608 694 l 608 0 l 434 0 l 434 694 l 174 694 l 174 0 l 0 0 z "},"n":{"ha":1213,"x_min":0,"x_max":1042,"o":"m 0 0 l 0 868 l 1042 868 l 1042 0 l 868 0 l 868 694 l 174 694 l 174 0 l 0 0 z "},"o":{"ha":1213,"x_min":0,"x_max":1042,"o":"m 868 174 l 868 694 l 174 694 l 174 174 l 868 174 m 0 0 l 0 868 l 1042 868 l 1042 0 l 0 0 z "},"p":{"ha":1213,"x_min":0,"x_max":1042,"o":"m 868 347 l 868 694 l 174 694 l 174 347 l 868 347 m 0 0 l 0 868 l 1042 868 l 1042 174 l 174 174 l 174 0 l 0 0 z "},"q":{"ha":1213,"x_min":0,"x_max":1042,"o":"m 868 174 l 868 694 l 174 694 l 174 174 l 434 174 l 434 347 l 608 347 l 608 174 l 868 174 m 434 -174 l 434 0 l 0 0 l 0 868 l 1042 868 l 1042 0 l 608 0 l 608 -174 l 434 -174 z "},"r":{"ha":1213,"x_min":0,"x_max":1042,"o":"m 868 521 l 868 694 l 174 694 l 174 521 l 868 521 m 0 0 l 0 868 l 1042 868 l 1042 347 l 521 347 l 521 174 l 1042 174 l 1042 0 l 347 0 l 347 347 l 174 347 l 174 0 l 0 0 z "},"s":{"ha":1213,"x_min":0,"x_max":1042,"o":"m 0 0 l 0 174 l 868 174 l 868 347 l 0 347 l 0 868 l 1042 868 l 1042 694 l 174 694 l 174 521 l 1042 521 l 1042 0 l 0 0 z "},"t":{"ha":1213,"x_min":0,"x_max":1042,"o":"m 434 0 l 434 694 l 0 694 l 0 868 l 1042 868 l 1042 694 l 608 694 l 608 0 l 434 0 z "},"u":{"ha":1213,"x_min":0,"x_max":1042,"o":"m 0 0 l 0 868 l 174 868 l 174 174 l 868 174 l 868 868 l 1042 868 l 1042 0 l 0 0 z "},"v":{"ha":1213,"x_min":0,"x_max":1042,"o":"m 174 0 l 174 174 l 868 174 l 868 0 l 174 0 m 0 174 l 0 868 l 174 868 l 174 174 l 0 174 m 868 174 l 868 868 l 1042 868 l 1042 174 l 868 174 z "},"w":{"ha":1213,"x_min":0,"x_max":1042,"o":"m 0 0 l 0 868 l 174 868 l 174 174 l 434 174 l 434 868 l 608 868 l 608 174 l 868 174 l 868 868 l 1042 868 l 1042 0 l 0 0 z "},"x":{"ha":1213,"x_min":0,"x_max":1042,"o":"m 0 0 l 0 347 l 174 347 l 174 0 l 0 0 m 868 0 l 868 347 l 1042 347 l 1042 0 l 868 0 m 174 347 l 174 521 l 868 521 l 868 347 l 174 347 m 0 521 l 0 868 l 174 868 l 174 521 l 0 521 m 868 521 l 868 868 l 1042 868 l 1042 521 l 868 521 z "},"y":{"ha":1213,"x_min":0,"x_max":1042,"o":"m 434 0 l 434 347 l 0 347 l 0 868 l 174 868 l 174 521 l 868 521 l 868 868 l 1042 868 l 1042 347 l 608 347 l 608 0 l 434 0 z "},"z":{"ha":1213,"x_min":0,"x_max":1042,"o":"m 0 0 l 0 521 l 868 521 l 868 694 l 0 694 l 0 868 l 1042 868 l 1042 347 l 174 347 l 174 174 l 1042 174 l 1042 0 l 0 0 z "}}}
